# xmcd
#
# Track frame offsets: 
#        150
#        17927
#        35258
#        60408
#        79505
#        100416
#        131325
#        146962
#        164042
#        187681
#        204060
#
# Disc length: 3025 seconds
#
# Revision: 0
# Processed by: cddbd v1.5.2PL0 Copyright (c) Steve Scherf et al.
# Submitted via: ExactAudioCopy v0.95b4
#
DISCID=8a0bcf0b
DTITLE=Danny and Dusty - Here's to you Max Morlock (live in Nuremberg)(d
DTITLE=isc 1)
DYEAR=2007
DGENRE=Rock
TTITLE0=Intro
TTITLE1=The word is out
TTITLE2=Song for the dreamers
TTITLE3=New York City lullaby
TTITLE4=Cast iron soul
TTITLE5=Miracle mile
TTITLE6=The good old days
TTITLE7=Last of the only ones
TTITLE8=JD's blues
TTITLE9=Warren Oates
TTITLE10=Raise the roof
EXTD=
EXTT0=
EXTT1=
EXTT2=
EXTT3=
EXTT4=
EXTT5=
EXTT6=
EXTT7=
EXTT8=
EXTT9=
EXTT10=
PLAYORDER=
